HIERARCHY
ROOT hip
{
	OFFSET 0.000000 0.000000 0.000000 
	CHANNELS 6 Xposition Yposition Zposition Xrotation Zrotation Yrotation
	JOINT abdomen
	{
		OFFSET 0.000000 3.402643 0.000000 
		CHANNELS 3 Xrotation Zrotation Yrotation
		JOINT chest
		{
			OFFSET 0.000000 8.438565 -0.680529 
			CHANNELS 3 Xrotation Zrotation Yrotation
			JOINT neck
			{
				OFFSET 0.000000 10.207942 -0.272212 
				CHANNELS 3 Xrotation Zrotation Yrotation
				JOINT head
				{
					OFFSET 0.000000 3.130431 0.000000 
					CHANNELS 3 Xrotation Zrotation Yrotation
					End Site
					{
						OFFSET 0.000000 3.130435 0.000000 
					}
				}
			}
			JOINT lCollar
			{
				OFFSET 3.470700 6.669187 -0.816635 
				CHANNELS 3 Yrotation Zrotation Xrotation
				JOINT lShldr
				{
					OFFSET 3.198488 0.000000 0.000000 
					CHANNELS 3 Zrotation Yrotation Xrotation
					JOINT lForeArm
					{
						OFFSET 10.139888 0.000000 0.000000 
						CHANNELS 3 Yrotation Zrotation Xrotation
						JOINT lHand
						{
							OFFSET 8.370511 0.000000 0.000000 
							CHANNELS 3 Zrotation Yrotation Xrotation
							End Site
							{
								OFFSET 4.083176 0.000000 0.000000 
							}
						}
					}
				}
			}
			JOINT rCollar
			{
				OFFSET -3.470700 6.669187 -0.816635 
				CHANNELS 3 Yrotation Zrotation Xrotation
				JOINT rShldr
				{
					OFFSET -3.198488 0.000000 0.000000 
					CHANNELS 3 Zrotation Yrotation Xrotation
					JOINT rForeArm
					{
						OFFSET -10.139888 0.000000 0.000000 
						CHANNELS 3 Yrotation Zrotation Xrotation
						JOINT rHand
						{
							OFFSET -8.370511 0.000000 0.000000 
							CHANNELS 3 Zrotation Yrotation Xrotation
							End Site
							{
								OFFSET -4.083176 0.000000 0.000000 
							}
						}
					}
				}
			}
		}
	}
	JOINT lThigh
	{
		OFFSET 5.308129 -1.633274 1.361059 
		CHANNELS 3 Xrotation Zrotation Yrotation
		JOINT lShin
		{
			OFFSET -2.041588 -20.007561 0.000000 
			CHANNELS 3 Xrotation Zrotation Yrotation
			JOINT lFoot
			{
				OFFSET 0.000000 -19.190928 -1.224953 
				CHANNELS 3 Xrotation Yrotation Zrotation
				End Site
				{
					OFFSET 0.000000 -2.449906 4.627600 
				}
			}
		}
	}
	JOINT rThigh
	{
		OFFSET -5.308129 -1.633274 1.361059 
		CHANNELS 3 Xrotation Zrotation Yrotation
		JOINT rShin
		{
			OFFSET 2.041588 -20.007561 0.000000 
			CHANNELS 3 Xrotation Zrotation Yrotation
			JOINT rFoot
			{
				OFFSET 0.000000 -19.190928 -1.224953 
				CHANNELS 3 Xrotation Yrotation Zrotation
				End Site
				{
					OFFSET 0.000000 -2.449906 4.627600 
				}
			}
		}
	}
}
MOTION
Frames: 16
Frame Time: 0.033333
-1.489119 53.904995 3.196838 -10.751953 0.507812 -8.369141 42.186260 -21.583658 -1.399765 -24.355469 4.560547 -2.099609 51.553619 8.070152 2.616707 -66.181641 3.544922 -22.997442 2.000000 -2.000000 0.000000 -38.955074 18.232422 13.294070 -50.096355 -1.938647 -1.927095 53.428654 18.924715 22.864437 -2.000000 2.000000 0.000000 61.718750 -41.933598 21.565741 51.827457 1.697897 -1.657884 -5.642409 -51.035084 9.662476 -27.413765 7.331859 -1.953534 79.145790 -1.385118 -6.112988 34.163727 17.130192 -3.621076 19.040012 6.472530 -12.883196 2.870527 5.871238 0.198665 18.468079 -13.324247 -4.321071 
-2.978237 53.920799 6.393664 -10.400391 0.849609 -11.074073 43.240639 -21.830360 -0.435205 -24.013674 3.691406 -1.630859 51.553619 8.070152 2.616707 -72.724609 -1.113281 -18.808596 2.000000 -2.000000 0.000000 -42.714844 20.068359 8.437500 -47.991276 -1.771696 -2.083842 52.349689 16.077387 24.262215 -2.000000 2.000000 0.000000 62.050781 -39.121094 24.433594 51.317554 1.509121 -1.942701 -5.933942 -51.505432 10.370327 -30.351572 8.727245 0.140046 76.359909 -1.814682 -5.483836 26.609364 14.261368 -0.681371 26.443211 7.381367 -12.639487 -7.699968 5.883482 -0.785712 27.398666 -12.125772 -7.041178 
-4.426276 53.936615 9.598821 -9.853516 1.210938 -13.759766 44.305737 -21.983551 0.338586 -23.681643 2.978516 -1.152344 51.553619 8.070152 2.616707 -78.759766 -5.585938 -14.581030 2.000000 -2.000000 0.000000 -46.513672 20.800783 3.505859 -46.387901 -2.022329 -2.020331 51.303959 13.565042 24.622322 -2.000000 2.000000 0.000000 61.894531 -37.001953 23.802717 51.124645 1.669221 -1.669335 -6.823288 -51.754986 11.280905 -32.751671 6.122803 5.159573 72.168274 -2.428343 -5.240659 19.722797 15.678363 1.531597 31.800421 6.813179 -13.667835 -15.987697 5.736724 -1.455350 41.427361 -8.899346 -9.887465 
-5.841552 54.197578 12.790702 -9.511719 1.542969 -16.611326 44.980629 -21.965597 1.131520 -23.339844 2.275391 -0.859375 51.553619 8.070152 2.616707 -82.910156 -9.892577 -10.800781 2.000000 -2.000000 0.000000 -49.433598 19.775391 -0.957031 -45.688980 -1.892818 -1.812431 50.571991 12.680965 23.617044 -2.000000 2.000000 0.000000 63.896481 -35.380859 17.539064 50.602024 1.669731 -1.845323 -9.463009 -51.180424 13.323067 -32.013718 3.894574 7.839978 64.945831 -2.563436 -5.320105 12.062552 13.222285 3.812462 29.569054 7.362447 -17.566759 -17.571709 5.717279 -1.663474 43.747326 -10.004060 -11.187290 
-7.242408 54.695786 15.972284 -8.984374 1.904297 -19.111002 45.222031 -21.672411 2.125190 -22.998047 1.396484 -0.595465 51.553619 8.070152 2.616707 -84.853516 -14.873044 -7.255859 2.000000 -2.000000 0.000000 -51.220707 17.880859 -5.302734 -46.054558 -1.882429 -1.969498 49.717583 14.353109 19.948647 -2.000000 2.000000 0.000000 66.132813 -34.462894 8.344085 49.710453 1.820017 -1.738770 -12.650696 -49.926884 15.057526 -31.122276 2.158098 9.344723 57.065182 -3.596566 -4.717840 4.500560 9.562085 5.809343 24.435698 7.074498 -22.149719 -15.979162 5.728953 -1.472785 39.280090 -11.948810 -7.943005 
-8.602756 54.853939 19.188604 -8.808594 2.236328 -21.454699 44.998669 -20.938696 3.347528 -22.480469 0.332031 -0.869141 51.553619 8.070152 2.616707 -84.892578 -20.576168 -3.916016 2.000000 -2.000000 0.000000 -51.835934 16.347654 -10.075376 -47.130444 -1.533739 -2.029273 48.449883 17.600853 14.501620 -2.000000 2.000000 0.000000 66.083984 -33.955078 1.225016 49.724964 1.820521 -1.914757 -14.094447 -49.409424 14.876678 -27.798391 -0.224934 10.071065 45.294319 -4.345542 -4.095091 1.105693 5.855360 6.491946 18.534857 5.751673 -27.450792 -12.620755 5.774013 -1.118430 30.514643 -13.693860 -2.566414 
-9.896523 54.664150 22.484734 -8.642579 2.587891 -23.261715 44.140545 -19.592188 4.843345 -22.138672 -0.888672 -1.572417 51.553619 8.070152 2.616707 -83.535156 -25.585934 -0.873358 2.000000 -2.000000 0.000000 -52.158203 14.355468 -14.775392 -48.701607 -1.560711 -1.988584 47.301384 20.776552 8.749344 -2.000000 2.000000 0.000000 67.939453 -33.427734 -4.175303 50.466637 1.361005 -2.254710 -14.236540 -48.708199 12.125570 -20.746132 -3.036975 8.648297 23.283617 -5.861691 -2.651722 6.470809 3.636971 5.849928 14.818208 3.452817 -31.037189 -7.522553 5.793840 -0.752658 19.231586 -16.050375 2.928624 
-11.142117 53.406780 25.848648 -8.652344 2.949219 -24.706526 43.049820 -18.276451 5.991439 -21.787109 -1.582031 -2.187500 51.553619 8.070152 2.616707 -80.859375 -28.320311 0.942633 2.000000 -2.000000 0.000000 -52.265625 12.021484 -18.798828 -50.669968 -1.269289 -2.191379 45.587536 23.733465 2.778924 -2.000000 2.000000 0.000000 70.976563 -33.300781 -9.726562 51.530266 0.869173 -1.872472 -13.141747 -48.458447 7.313173 -11.508407 -6.023503 5.341905 -2.714325 -6.337161 0.035094 14.734780 3.155788 5.578401 16.285795 1.179331 -33.723442 2.364785 5.788024 0.495449 -0.135398 -16.075197 -2.592723 
-12.376486 52.220585 29.235025 -9.003906 3.291015 -25.322266 41.791275 -17.042027 6.534819 -21.787109 -1.748047 -2.216797 51.553619 8.070152 2.616707 -76.201172 -28.818357 1.430839 2.000000 -2.000000 0.000000 -52.646484 8.544922 -22.098158 -52.765106 -1.425931 -2.025783 44.270443 25.525843 -1.030030 -2.000000 2.000000 0.000000 73.037109 -34.218750 -14.126586 52.750206 1.347850 -2.196804 -12.331475 -48.428398 2.613877 -5.193267 -7.741306 2.331564 -17.124929 -5.766988 1.592100 14.211025 2.021470 5.615600 16.092894 -3.360102 -35.950981 16.643757 5.021056 1.929359 -10.518125 -13.571657 -3.085486 
-13.601041 51.627487 32.638783 -9.873046 3.808594 -24.921227 39.651279 -16.772604 5.973241 -22.304688 -0.185547 -1.132813 51.553619 8.070152 2.616707 -67.890625 -27.900389 0.068358 2.000000 -2.000000 0.000000 -53.291016 2.080078 -23.896130 -55.614120 -0.972176 -2.296721 42.991577 24.104811 -2.879221 -2.000000 2.000000 0.000000 74.912109 -38.808598 -17.939453 53.644344 1.036910 -2.400861 -11.688366 -48.283821 0.352001 -13.456574 -8.251167 2.903521 8.442730 -6.307396 -1.198031 3.629127 3.962507 4.466155 17.462952 -7.178037 -34.932301 26.712061 5.045793 2.490551 -7.988279 -12.176695 -0.580891 
-14.817698 50.852497 36.054676 -10.771484 4.306641 -23.680910 36.952618 -16.787708 4.769332 -23.320313 2.626953 0.585938 51.553619 8.070152 2.616707 -59.130859 -24.873043 -1.699219 2.000000 -2.000000 0.000000 -54.121090 -7.617188 -24.063793 -59.476398 -1.187681 -2.470140 41.840626 20.627857 -1.973696 -2.000000 2.000000 0.000000 74.609375 -47.275391 -20.458982 54.698730 1.065590 -2.389419 -12.448176 -49.113590 1.844196 -13.710610 -8.837205 1.800646 20.097908 -5.997135 -2.323117 -1.202892 4.554016 3.889572 23.420008 -6.573676 -31.228151 25.780750 4.767345 2.798957 -4.454549 -11.873704 6.307707 
-16.027798 50.196144 39.477867 -11.464843 4.306641 -21.971926 35.824654 -15.981518 2.795045 -24.179688 4.912109 1.464844 51.553619 8.070152 2.616707 -54.873047 -20.029295 -1.536548 2.000000 -2.000000 0.000000 -54.248047 -15.605470 -22.141300 -63.353489 -1.070691 -2.476946 41.716675 17.329111 -0.635514 -2.000000 2.000000 0.000000 71.337891 -56.054691 -19.863281 55.572266 1.083488 -2.192626 -13.440318 -50.210926 5.189189 -10.678892 -9.421003 0.545636 24.513191 -5.799104 -2.820884 -0.196918 5.003183 3.109854 30.107845 -4.259521 -24.273001 20.880768 5.068551 2.028227 0.846428 -11.480622 15.009288 
-17.233160 50.338497 42.903118 -11.806641 3.945313 -19.648438 37.987015 -13.840230 -0.129431 -24.521486 5.791016 0.615235 51.553619 8.070152 2.616707 -57.314453 -11.679687 2.128906 2.000000 -2.000000 0.000000 -52.724606 -20.029297 -19.729908 -68.464783 -0.981127 -2.619054 42.536705 15.289467 0.614768 -2.000000 2.000000 0.000000 64.443359 -60.488277 -13.651075 56.254654 1.403504 -2.144674 -14.838408 -51.159267 9.513794 -10.458457 -9.414056 0.666072 31.381512 -5.184865 -3.561948 1.134250 4.383386 2.986253 30.579136 -5.157280 -18.639536 22.280052 5.354887 2.585922 19.879293 -4.639826 25.352247 
-18.435242 50.797150 46.325577 -11.796876 2.558594 -16.718750 41.336037 -10.829712 -3.436001 -24.677734 6.494141 -1.093750 51.553619 8.070152 2.616707 -61.689457 -0.068359 7.578127 2.000000 -2.000000 0.000000 -49.882816 -22.480469 -16.484373 -73.579330 -0.545935 -2.536811 44.050686 13.092779 2.057990 -2.000000 2.000000 0.000000 57.871094 -61.728519 -6.044923 56.606174 1.432751 -2.142973 -15.100753 -52.276958 11.841314 -5.585393 -8.094280 0.297505 30.148134 -5.560558 -3.371986 -2.249285 4.239522 6.614168 15.425842 -9.461309 -14.512736 39.842724 3.828549 3.623724 21.754107 -3.475854 26.919773 
-19.635862 51.485146 49.740017 -11.630858 0.683594 -12.802618 44.341526 -7.784534 -6.063396 -25.000000 8.085938 -2.412110 51.553619 8.070152 2.616707 -63.632816 11.416015 11.708984 2.000000 -2.000000 0.000000 -48.476563 -25.371094 -11.332309 -76.214409 -0.601031 -2.474936 45.934338 11.167350 4.155640 -2.000000 2.000000 0.000000 54.208988 -61.933594 -1.063301 56.606174 1.432751 -2.142973 -13.265376 -53.549198 10.616429 -0.917329 -5.296668 0.393431 27.701139 -5.707102 -2.919421 0.880135 1.787855 9.684617 -5.917483 -13.523281 -9.383956 62.985943 2.372935 4.787767 18.884701 -7.021996 24.190979 
-20.836487 52.963943 53.141346 -11.269531 -1.406296 -8.515581 46.554420 -4.967196 -8.267776 -25.449221 12.480469 -2.373047 51.553619 8.070152 2.616707 -63.642582 18.281250 13.798830 2.000000 -2.000000 0.000000 -50.078129 -30.009764 -3.671875 -74.446465 -0.736953 -2.457249 47.568859 9.497407 7.571238 -2.000000 2.000000 0.000000 48.339840 -63.662109 4.384766 56.096493 1.242972 -2.075784 -10.628426 -55.089336 8.067222 3.713921 -1.490927 0.622306 23.658482 -5.896016 -2.692402 8.675349 -0.199933 13.206740 -22.606424 -14.657557 -5.326697 75.769173 1.152337 5.170660 17.995499 -12.607586 20.217690 
